<svg width="200" height="200" viewBox="0 0 200 200" fill="none" xmlns="http://www.w3.org/2000/svg">
<g filter="url(#filter0_b_146_207)">
<g clip-path="url(#clip0_146_207)">
<path d="M166.349 82.0002C166.349 88.2206 166.349 94.441 166.349 101.082C173.535 96.9267 180.363 92.9787 187.5 88.8515C187.5 89.838 187.5 90.5185 187.5 91.199C187.5 110.26 187.477 129.32 187.54 148.38C187.545 150.061 186.936 150.83 185.509 151.618C179.231 155.085 173.037 158.705 166.825 162.292C161.219 165.529 155.632 168.795 150.034 172.046C140.977 177.304 131.927 182.575 122.858 187.813C115.989 191.782 109.095 195.706 102.217 199.66C102.007 199.781 101.864 200.017 101.821 200.295C101.156 200.391 100.358 200.391 99.3897 200.391C98.2319 199.624 97.3554 198.504 96.2383 198.156C92.2573 196.914 91.4879 194.278 91.7041 190.412C92.0489 184.248 91.7927 178.049 91.8329 171.533C91.9318 165.288 91.9983 159.375 92.0306 153.463C92.0341 152.828 91.8382 152.192 91.7613 151.375C91.7909 149.308 91.6636 147.408 91.8587 145.543C91.9409 144.757 92.5243 143.753 93.1863 143.343C96.8418 141.076 100.592 138.962 104.448 136.761C107.13 135.324 109.688 133.944 112.206 132.496C112.596 132.271 113.062 131.731 113.058 131.34C113.029 128.189 112.896 125.039 112.836 121.709C112.902 110.429 112.927 99.3295 113.019 88.1904C113.173 88.0865 113.238 88.0054 113.417 87.8786C115.736 86.6027 117.87 85.2498 120.133 84.1681C120.9 83.8017 122.137 83.8179 122.912 84.1838C125.236 85.282 127.438 86.6391 129.73 87.9608C129.842 88.1081 129.924 88.1718 130.045 88.4033C130.073 105.769 130.06 122.949 130.108 140.129C130.112 141.492 129.614 142.197 128.47 142.84C122.439 146.231 116.441 149.681 110.469 153.173C109.849 153.536 109.058 154.31 109.049 154.904C108.95 161.775 108.985 168.649 108.985 175.798C112.327 173.864 115.436 172.049 118.559 170.259C126.767 165.555 134.992 160.879 143.191 156.159C151.611 151.313 159.995 146.404 168.432 141.59C169.541 140.957 169.957 140.261 169.946 139.008C169.893 132.891 169.924 126.774 169.918 120.657C169.918 120.174 169.867 119.692 169.822 118.906C162.73 123.012 155.903 126.965 148.828 131.062C148.828 129.241 148.825 127.758 148.829 126.276C148.856 114.695 148.886 103.113 148.976 91.5229C149.039 91.5137 149.157 91.472 149.302 91.4572C154.955 88.2868 160.464 85.1311 166.067 81.9832C166.161 81.9909 166.349 82.0002 166.349 82.0002Z" fill="url(#paint0_linear_146_207)"/>
<path d="M101.782 0.390625C103.201 1.32813 104.372 2.39978 105.711 3.18197C116.611 9.54904 127.533 15.8794 138.469 22.1856C146.656 26.9069 154.875 31.5723 163.077 36.2691C170.836 40.713 178.604 45.144 186.323 49.6576C186.9 49.9951 187.408 50.9334 187.447 51.621C187.584 54.0186 187.595 56.4349 187.442 58.8306C187.396 59.5599 186.841 60.5396 186.223 60.9063C179.678 64.7884 173.075 68.5698 166.332 72.5014C166.176 72.6239 166.019 72.653 165.878 72.6555C161.719 74.9144 157.688 77.147 153.691 79.4391C152.125 80.337 150.635 81.3683 149.028 82.3561C148.944 82.3734 148.789 82.4436 148.661 82.4843C146.963 83.4503 145.363 84.3297 143.833 85.3182C142.914 85.9121 142.182 85.8145 141.268 85.2814C137.57 83.1268 133.828 81.0479 130.025 78.831C127.445 77.2373 124.959 75.7248 122.425 74.2978C121.997 74.0565 121.23 73.9555 120.841 74.1774C118.153 75.7113 115.524 77.3479 112.743 78.977C112.368 79.2123 112.153 79.4683 111.88 79.6253C105.742 83.1623 99.6158 86.7197 93.4482 90.2042C90.1022 92.0946 86.6841 93.8573 83.2248 95.5627C80.9281 94.1338 78.7309 92.773 76.4705 91.5268C75.4379 90.9576 75.0008 90.2656 75.0308 89.0693C75.0988 86.3561 75.0369 83.6396 75.1509 80.8613C82.6781 76.4979 90.0796 72.1932 97.4869 67.8985C104.352 63.918 111.19 59.8865 118.12 56.0209C119.669 55.1564 121.223 53.2735 123.426 55.0489C124.453 55.877 125.689 56.4496 126.846 57.1127C131.747 59.9241 136.636 62.7583 141.584 65.486C142.133 65.7887 143.141 65.6905 143.742 65.3905C146.068 64.2302 148.332 62.9396 150.59 61.6477C154.165 59.6026 157.717 57.5174 161.471 55.3373C158.345 53.5823 155.415 51.9815 152.527 50.3077C142.807 44.6739 133.114 38.991 123.385 33.372C116.186 29.2142 108.913 25.1828 101.76 20.9472C100.7 20.3195 100.07 20.4026 99.1988 20.9064C97.4969 21.8911 95.7825 22.8541 94.0813 23.8399C89.9778 26.2178 85.879 28.6037 81.6527 31.0594C88.6567 35.0888 95.5168 39.0356 102.622 43.1236C101.402 43.8424 100.481 44.3918 99.5542 44.9304C94.779 47.704 90.014 50.4953 85.2231 53.2415C79.6121 56.4578 73.9782 59.634 68.284 62.7192C67.3459 62.0559 66.4935 61.4749 65.6075 60.9507C60.9955 58.2221 56.375 55.5079 51.7575 52.7887C57.1487 49.5995 62.5399 46.4104 68.0848 43.1303C61.0954 39.08 54.2425 35.1088 47.1099 30.9754C50.6379 28.9232 53.9991 26.961 57.3671 25.0105C63.7339 21.3232 70.1007 17.6358 76.4748 13.9612C81.86 10.8568 87.2625 7.78236 92.6432 4.6702C94.9417 3.34077 97.2043 1.94923 99.351 0.488264C100.016 0.390627 100.814 0.390627 101.782 0.390625Z" fill="url(#paint1_linear_146_207)"/>
<path d="M83.5561 166.427C78.9304 163.8 74.3072 161.169 69.6766 158.552C68.8025 158.058 67.8987 157.616 66.8102 157.047C66.8102 165.181 66.8102 173.077 66.8102 181.224C59.651 177.067 52.7014 173.023 45.7433 168.993C39.5343 165.397 33.3172 161.816 27.1014 158.232C22.8689 155.791 18.625 153.371 14.4114 150.898C14.0656 150.695 13.8357 150.187 13.6969 149.772C13.5795 149.421 13.6719 149 13.6719 148.609C13.6718 116.467 13.6789 84.3246 13.6467 52.1823C13.6453 50.8559 13.8124 50.0119 15.2021 49.3572C17.3157 48.3614 19.2193 46.9282 21.2858 45.8178C21.7436 45.5719 22.6139 45.709 23.1157 45.9894C27.9915 48.714 32.8285 51.508 37.6783 54.2793C39.4968 55.3185 41.3196 56.3501 43.3369 57.5445C48.364 60.5597 53.1862 63.4299 58.0336 66.257C58.8007 66.7043 59.6812 66.957 60.5842 67.4079C62.092 68.3245 63.4914 69.2021 64.9681 69.9206C66.2608 70.5495 66.8703 71.3419 66.838 72.8919C66.7501 77.1128 66.8605 81.3379 66.8614 85.7401C66.8124 88.7133 66.7739 91.508 66.7961 94.3023C66.7998 94.7776 66.9181 95.5075 67.2305 95.685C70.03 97.276 72.8849 98.7696 75.7683 100.431C85.5673 106.22 95.3214 111.869 104.964 117.644C104.805 120.036 104.601 122.314 104.759 124.566C104.897 126.53 104.216 127.62 102.483 128.522C100.393 129.61 98.4942 131.064 96.3757 132.342C93.8266 130.922 91.42 129.509 89.0017 128.117C83.3871 124.884 77.7622 121.67 72.1502 118.433C65.1102 114.373 58.0941 110.27 51.027 106.258C49.9965 105.673 49.5701 105.087 49.5805 103.88C49.6399 96.9807 49.539 90.0793 49.6583 83.1815C49.6885 81.4359 49.0402 80.581 47.6015 79.8023C44.1398 77.9287 40.7718 75.883 37.3517 73.9316C35.261 72.7386 33.1439 71.5917 30.8594 70.3247C30.8594 78.7057 30.8594 86.7115 30.8594 94.7172C30.8594 109.298 30.8929 123.879 30.8132 138.46C30.8042 140.119 31.3795 141.045 32.7278 141.793C36.6712 143.979 40.5887 146.212 44.5104 148.437C46.1396 149.362 47.7537 150.313 49.7178 151.451C49.7178 143.152 49.7178 135.276 49.7178 127.265C54.9609 130.251 59.9886 133.08 64.9821 135.968C71.2437 139.589 77.4772 143.259 83.6977 147.087C83.6337 153.653 83.5949 160.04 83.5561 166.427Z" fill="url(#paint2_linear_146_207)"/>
<path d="M83.6163 166.55C83.595 160.04 83.6338 153.654 83.8282 147.081C86.5674 148.449 89.1511 150.003 91.7348 151.557C91.8382 152.192 92.0341 152.828 92.0306 153.463C91.9984 159.376 91.9318 165.288 91.8143 171.352C89.0611 169.893 86.3687 168.284 83.6163 166.55Z" fill="#A11FFE"/>
<path d="M60.5094 67.2998C59.6813 66.9571 58.8008 66.7043 58.0337 66.257C53.1863 63.4299 48.3641 60.5597 43.4719 57.594C46.11 55.9059 48.8097 54.3275 51.6335 52.7689C56.3751 55.5079 60.9956 58.2221 65.6076 60.9507C66.4936 61.475 67.346 62.0559 68.1662 62.7884C65.5821 64.4107 63.0457 65.8552 60.5094 67.2998Z" fill="#D75AFA"/>
<path d="M166.019 72.653C166.019 72.653 166.176 72.6239 166.256 72.6171C166.359 75.6222 166.383 78.6341 166.377 81.8232C166.349 82.0003 166.161 81.9909 166.071 81.8043C165.994 78.6294 166.006 75.6412 166.019 72.653Z" fill="#DFF948"/>
<path d="M104.964 117.644C107.576 118.925 110.076 120.333 112.685 121.814C112.896 125.039 113.029 128.189 113.058 131.34C113.062 131.731 112.596 132.271 112.206 132.496C109.688 133.944 107.13 135.324 104.447 136.761C101.788 135.363 99.266 133.931 96.6285 132.429C98.4942 131.064 100.393 129.61 102.483 128.522C104.216 127.62 104.898 126.53 104.759 124.566C104.601 122.314 104.805 120.036 104.964 117.644Z" fill="#54A3E8"/>
<path d="M165.877 72.6555C166.006 75.6412 165.994 78.6294 165.977 81.7966C160.464 85.1312 154.955 88.2869 149.317 91.2686C149.162 88.176 149.137 85.2575 149.111 82.3389C150.635 81.3683 152.125 80.3371 153.691 79.4391C157.688 77.147 161.719 74.9144 165.877 72.6555Z" fill="#FC8D5D"/>
<path d="M112.947 79.2812C112.947 79.2812 112.893 79.1202 112.884 79.0358C115.524 77.3479 118.153 75.7112 120.841 74.1774C121.23 73.9554 121.997 74.0564 122.425 74.2978C124.959 75.7247 127.445 77.2372 130.025 78.831C130.103 78.941 130.077 79.1214 129.976 79.3523C129.813 82.3539 129.75 85.1245 129.687 87.8951C127.438 86.6391 125.236 85.282 122.912 84.1838C122.137 83.8179 120.9 83.8017 120.133 84.1681C117.87 85.2498 115.736 86.6027 113.416 87.6943C113.169 84.7865 113.058 82.0339 112.947 79.2812Z" fill="#27B8FC"/>
<path d="M112.925 79.4653C113.058 82.0338 113.169 84.7865 113.282 87.7234C113.238 88.0054 113.173 88.0865 113.019 88.1904C112.935 85.3697 112.92 82.5096 112.925 79.4653Z" fill="#DFF948"/>
<path d="M129.73 87.9609C129.75 85.1246 129.813 82.354 129.948 79.4391C130.037 82.1528 130.054 85.0108 130.045 88.0433C129.924 88.1719 129.842 88.1081 129.73 87.9609Z" fill="#5CC8F7"/>
<path d="M149.028 82.3561C149.137 85.2574 149.162 88.176 149.172 91.2833C149.157 91.472 149.039 91.5137 148.976 91.523C148.884 88.6233 148.853 85.7145 148.806 82.6246C148.789 82.4436 148.944 82.3733 149.028 82.3561Z" fill="#DFF948"/>
<path d="M66.8702 85.6326C69.58 83.9271 72.2581 82.3991 75.0763 80.8594C75.2256 83.5455 75.2889 86.2447 75.2194 88.9406C75.1887 90.1293 75.6354 90.8168 76.6907 91.3825C79.0009 92.6207 81.2465 93.9728 83.5937 95.3926C81.154 96.974 78.6388 98.4412 76.0255 100C73.0262 98.5791 70.1086 97.095 67.2475 95.5142C66.9282 95.3378 66.8073 94.6126 66.8034 94.1402C66.7808 91.3638 66.8202 88.5869 66.8702 85.6326Z" fill="#FF59A4"/>
</g>
</g>
<defs>
<filter id="filter0_b_146_207" x="-9.6" y="-9.6" width="219.2" height="219.2" filterUnits="userSpaceOnUse" color-interpolation-filters="sRGB">
<feFlood flood-opacity="0" result="BackgroundImageFix"/>
<feGaussianBlur in="BackgroundImageFix" stdDeviation="4.8"/>
<feComposite in2="SourceAlpha" operator="in" result="effect1_backgroundBlur_146_207"/>
<feBlend mode="normal" in="SourceGraphic" in2="effect1_backgroundBlur_146_207" result="shape"/>
</filter>
<linearGradient id="paint0_linear_146_207" x1="171.68" y1="91.4062" x2="102.539" y2="185.352" gradientUnits="userSpaceOnUse">
<stop stop-color="#00EBFA"/>
<stop offset="1" stop-color="#AD00FF"/>
</linearGradient>
<linearGradient id="paint1_linear_146_207" x1="66.6015" y1="39.8438" x2="180.273" y2="48.0469" gradientUnits="userSpaceOnUse">
<stop stop-color="#FF44BF"/>
<stop offset="1" stop-color="#FB9D46"/>
</linearGradient>
<linearGradient id="paint2_linear_146_207" x1="22.6562" y1="45.7031" x2="64.2578" y2="181.25" gradientUnits="userSpaceOnUse">
<stop offset="0.0338477" stop-color="#FB45FF"/>
<stop offset="1" stop-color="#02CFDC"/>
</linearGradient>
<clipPath id="clip0_146_207">
<rect width="200" height="200" fill="white"/>
</clipPath>
</defs>
</svg>
