<svg width="252" height="252" viewBox="0 0 252 252" fill="none" xmlns="http://www.w3.org/2000/svg">
<g filter="url(#filter0_b_162_81)">
<g clip-path="url(#clip0_162_81)">
<path d="M209.599 103.32C209.599 111.158 209.599 118.996 209.599 127.363C218.654 122.128 227.257 117.153 236.25 111.953C236.25 113.196 236.25 114.053 236.25 114.911C236.25 138.927 236.221 162.943 236.3 186.959C236.307 189.077 235.54 190.046 233.742 191.039C225.831 195.407 218.026 199.969 210.199 204.488C203.136 208.566 196.096 212.682 189.043 216.777C177.631 223.404 166.228 230.044 154.801 236.645C146.146 241.645 137.459 246.59 128.794 251.572C128.529 251.724 128.348 252.022 128.295 252.372C127.456 252.492 126.451 252.492 125.231 252.492C123.772 251.527 122.668 250.116 121.26 249.677C116.244 248.112 115.275 244.79 115.547 239.92C115.982 232.152 115.659 224.342 115.709 216.131C115.834 208.263 115.918 200.813 115.959 193.363C115.963 192.563 115.716 191.762 115.619 190.733C115.656 188.128 115.496 185.734 115.742 183.384C115.845 182.394 116.581 181.129 117.415 180.612C122.021 177.756 126.746 175.092 131.604 172.319C134.984 170.509 138.206 168.77 141.379 166.945C141.871 166.662 142.458 165.981 142.453 165.489C142.417 161.518 142.249 157.549 142.173 153.353C142.256 139.141 142.287 125.155 142.404 111.12C142.597 110.989 142.68 110.887 142.906 110.727C145.828 109.119 148.516 107.415 151.368 106.052C152.333 105.59 153.893 105.611 154.868 106.072C157.797 107.455 160.571 109.165 163.46 110.831C163.601 111.016 163.704 111.097 163.856 111.388C163.891 133.269 163.875 154.915 163.937 176.562C163.941 178.28 163.313 179.168 161.872 179.978C154.273 184.251 146.716 188.598 139.191 192.999C138.41 193.455 137.413 194.431 137.402 195.179C137.276 203.837 137.322 212.497 137.322 221.505C141.532 219.068 145.449 216.782 149.385 214.527C159.727 208.599 170.089 202.707 180.421 196.76C191.029 190.654 201.593 184.47 212.224 178.403C213.622 177.606 214.145 176.729 214.132 175.15C214.065 167.443 214.104 159.735 214.097 152.028C214.096 151.42 214.032 150.812 213.976 149.822C205.04 154.996 196.438 159.976 187.523 165.138C187.523 162.844 187.519 160.976 187.524 159.108C187.559 144.515 187.596 129.923 187.71 115.319C187.789 115.307 187.937 115.255 188.12 115.236C195.244 111.241 202.185 107.265 209.244 103.299C209.362 103.309 209.599 103.32 209.599 103.32Z" fill="url(#paint0_linear_162_81)"/>
<path d="M128.246 0.492188C130.034 1.67345 131.508 3.02372 133.195 4.00928C146.93 12.0318 160.691 20.008 174.47 27.9539C184.786 33.9027 195.143 39.7811 205.477 45.6991C215.254 51.2984 225.041 56.8815 234.767 62.5686C235.494 62.9938 236.134 64.1761 236.183 65.0424C236.355 68.0635 236.37 71.1079 236.178 74.1265C236.119 75.0455 235.419 76.2799 234.641 76.7419C226.395 81.6334 218.074 86.3979 209.578 91.3518C209.382 91.5061 209.184 91.5427 209.006 91.5459C203.766 94.3921 198.687 97.2052 193.65 100.093C191.677 101.225 189.801 102.524 187.775 103.769C187.67 103.79 187.474 103.879 187.313 103.93C185.173 105.147 183.157 106.255 181.23 107.501C180.072 108.249 179.15 108.126 177.997 107.455C173.338 104.74 168.624 102.12 163.831 99.3271C160.58 97.319 157.448 95.4132 154.256 93.6153C153.716 93.3111 152.75 93.1839 152.26 93.4636C148.873 95.3962 145.56 97.4584 142.056 99.511C141.584 99.8075 141.312 100.13 140.969 100.328C133.235 104.785 125.516 109.267 117.745 113.657C113.529 116.039 109.222 118.26 104.863 120.409C101.969 118.609 99.2009 116.894 96.3528 115.324C95.0517 114.607 94.501 113.735 94.5388 112.227C94.6246 108.809 94.5465 105.386 94.6902 101.885C104.174 96.3873 113.5 90.9634 122.833 85.5521C131.484 80.5366 140.099 75.4569 148.831 70.5863C150.783 69.497 152.741 67.1246 155.516 69.3617C156.811 70.405 158.369 71.1264 159.825 71.962C166.001 75.5044 172.161 79.0755 178.395 82.5124C179.087 82.8938 180.357 82.7701 181.115 82.392C184.046 80.93 186.898 79.3039 189.744 77.6761C194.248 75.0992 198.724 72.4719 203.454 69.725C199.515 67.5137 195.823 65.4967 192.184 63.3878C179.936 56.2892 167.724 49.1286 155.465 42.0488C146.394 36.8099 137.23 31.7304 128.218 26.3935C126.882 25.6025 126.088 25.7072 124.991 26.3421C122.846 27.5828 120.686 28.7961 118.542 30.0383C113.372 33.0345 108.208 36.0407 102.882 39.1348C111.707 44.2119 120.351 49.1848 129.304 54.3357C127.767 55.2415 126.607 55.9336 125.438 56.6122C119.422 60.1071 113.418 63.6241 107.381 67.0843C100.311 71.1368 93.2125 75.1389 86.0379 79.0261C84.8559 78.1905 83.7818 77.4584 82.6655 76.7979C76.8544 73.3598 71.0326 69.94 65.2145 66.5138C72.0074 62.4954 78.8003 58.4771 85.7869 54.3441C76.9803 49.2408 68.3456 44.237 59.3585 39.029C63.8038 36.4433 68.0389 33.9709 72.2826 31.5132C80.3047 26.8672 88.3269 22.2211 96.3583 17.5912C103.144 13.6795 109.951 9.80578 116.731 5.88446C119.627 4.20937 122.477 2.45602 125.182 0.615213C126.02 0.49219 127.025 0.49219 128.246 0.492188Z" fill="url(#paint1_linear_162_81)"/>
<path d="M105.281 209.698C99.4523 206.389 93.6271 203.073 87.7925 199.775C86.6912 199.153 85.5524 198.596 84.181 197.879C84.181 208.129 84.181 218.077 84.181 228.342C75.1603 223.104 66.4038 218.009 57.6366 212.931C49.8133 208.401 41.9798 203.888 34.1478 199.372C28.8149 196.297 23.4675 193.247 18.1584 190.132C17.7227 189.876 17.433 189.236 17.2582 188.713C17.1102 188.271 17.2266 187.74 17.2266 187.248C17.2265 146.748 17.2355 106.249 17.1948 65.7497C17.1932 64.0785 17.4037 63.015 19.1547 62.19C21.8178 60.9353 24.2164 59.1295 26.8202 57.7305C27.3969 57.4206 28.4936 57.5934 29.1258 57.9466C35.2693 61.3797 41.364 64.9001 47.4747 68.3919C49.766 69.7013 52.0627 71.0012 54.6046 72.5061C60.9387 76.3052 67.0147 79.9217 73.1224 83.4838C74.0889 84.0474 75.1984 84.3659 76.3361 84.9339C78.236 86.0888 79.9991 87.1946 81.8598 88.0999C83.4886 88.8924 84.2566 89.8908 84.216 91.8438C84.1051 97.1622 84.2442 102.486 84.2454 108.033C84.1837 111.779 84.1351 115.3 84.1631 118.821C84.1678 119.42 84.3169 120.339 84.7105 120.563C88.2379 122.568 91.835 124.45 95.4681 126.544C107.815 133.837 120.105 140.955 132.254 148.231C132.054 151.246 131.797 154.116 131.997 156.954C132.171 159.427 131.312 160.801 129.128 161.938C126.495 163.308 124.103 165.141 121.433 166.752C118.222 164.961 115.189 163.181 112.142 161.427C105.068 157.354 97.9804 153.304 90.9092 149.226C82.0388 144.11 73.1986 138.941 64.294 133.885C62.9957 133.148 62.4583 132.41 62.4714 130.889C62.5463 122.196 62.4192 113.5 62.5695 104.809C62.6075 102.609 61.7907 101.532 59.9779 100.551C55.6162 98.1902 51.3725 95.6126 47.0632 93.1538C44.4288 91.6507 41.7614 90.2056 38.8828 88.6091C38.8828 99.1692 38.8828 109.256 38.8828 119.344C38.8828 137.716 38.9251 156.088 38.8247 174.459C38.8133 176.55 39.5382 177.717 41.2371 178.659C46.2058 181.414 51.1418 184.227 56.0831 187.031C58.136 188.196 60.1697 189.395 62.6445 190.829C62.6445 180.371 62.6445 170.448 62.6445 160.354C69.2508 164.117 75.5857 167.681 81.8775 171.32C89.767 175.883 97.6213 180.506 105.459 185.33C105.379 193.603 105.33 201.651 105.281 209.698Z" fill="url(#paint2_linear_162_81)"/>
<path d="M105.356 209.853C105.33 201.651 105.379 193.603 105.623 185.322C109.075 187.046 112.33 189.004 115.586 190.962C115.716 191.762 115.963 192.563 115.959 193.363C115.918 200.813 115.834 208.263 115.686 215.903C112.217 214.065 108.825 212.037 105.356 209.853Z" fill="#A11FFE"/>
<path d="M76.2417 84.7977C75.1984 84.3659 74.0889 84.0474 73.1224 83.4838C67.0147 79.9217 60.9386 76.3052 54.7745 72.5684C58.0985 70.4414 61.5001 68.4526 65.0581 66.4888C71.0326 69.94 76.8544 73.3598 82.6655 76.7979C83.7818 77.4584 84.8559 78.1904 85.8893 79.1134C82.6334 81.1574 79.4375 82.9776 76.2417 84.7977Z" fill="#FFB40D"/>
<path d="M209.184 91.5427C209.184 91.5427 209.382 91.5061 209.483 91.4975C209.613 95.2839 209.642 99.079 209.635 103.097C209.599 103.32 209.362 103.309 209.25 103.073C209.153 99.073 209.168 95.3079 209.184 91.5427Z" fill="#DFF948"/>
<path d="M132.254 148.231C135.545 149.846 138.695 151.619 141.983 153.486C142.249 157.549 142.417 161.518 142.454 165.489C142.458 165.98 141.871 166.662 141.379 166.945C138.206 168.77 134.984 170.509 131.604 172.319C128.253 170.558 125.075 168.753 121.752 166.861C124.103 165.141 126.495 163.308 129.128 161.938C131.312 160.801 132.171 159.427 131.997 156.954C131.797 154.116 132.054 151.246 132.254 148.231Z" fill="#FF852F"/>
<path d="M209.006 91.5459C209.168 95.3078 209.153 99.073 209.131 103.064C202.185 107.265 195.244 111.241 188.14 114.998C187.945 111.102 187.912 107.424 187.88 103.747C189.801 102.524 191.677 101.225 193.65 100.093C198.687 97.2052 203.766 94.3921 209.006 91.5459Z" fill="#FF3145"/>
<path d="M142.313 99.8944C142.313 99.8944 142.245 99.6916 142.234 99.5852C145.56 97.4583 148.873 95.3962 152.26 93.4636C152.75 93.1839 153.716 93.3111 154.256 93.6152C157.449 95.4132 160.58 97.319 163.831 99.3271C163.93 99.4657 163.897 99.693 163.77 99.984C163.564 103.766 163.485 107.257 163.406 110.748C160.571 109.165 157.797 107.455 154.868 106.072C153.893 105.611 152.333 105.59 151.368 106.052C148.516 107.415 145.828 109.119 142.904 110.495C142.593 106.831 142.453 103.363 142.313 99.8944Z" fill="#27B8FC"/>
<path d="M142.286 100.126C142.453 103.363 142.593 106.831 142.735 110.532C142.68 110.887 142.597 110.989 142.404 111.12C142.299 107.566 142.279 103.962 142.286 100.126Z" fill="#DFF948"/>
<path d="M163.46 110.831C163.485 107.257 163.564 103.766 163.734 100.093C163.847 103.513 163.868 107.114 163.857 110.935C163.704 111.097 163.601 111.016 163.46 110.831Z" fill="#5CC8F7"/>
<path d="M187.775 103.769C187.912 107.424 187.945 111.102 187.957 115.017C187.937 115.255 187.789 115.307 187.71 115.319C187.593 111.665 187.554 108 187.495 104.107C187.474 103.879 187.67 103.79 187.775 103.769Z" fill="#DFF948"/>
<path d="M84.2565 107.897C87.6707 105.748 91.0452 103.823 94.5961 101.883C94.7843 105.267 94.864 108.668 94.7764 112.065C94.7378 113.563 95.3006 114.429 96.6303 115.142C99.5411 116.702 102.371 118.406 105.328 120.195C102.254 122.187 99.0849 124.036 95.7921 126C92.0131 124.21 88.3368 122.34 84.7318 120.348C84.3295 120.126 84.1772 119.212 84.1723 118.617C84.1438 115.118 84.1934 111.62 84.2565 107.897Z" fill="#FF59A4"/>
</g>
</g>
<defs>
<filter id="filter0_b_162_81" x="-9.6" y="-9.6" width="271.2" height="271.2" filterUnits="userSpaceOnUse" color-interpolation-filters="sRGB">
<feFlood flood-opacity="0" result="BackgroundImageFix"/>
<feGaussianBlur in="BackgroundImageFix" stdDeviation="4.8"/>
<feComposite in2="SourceAlpha" operator="in" result="effect1_backgroundBlur_162_81"/>
<feBlend mode="normal" in="SourceGraphic" in2="effect1_backgroundBlur_162_81" result="shape"/>
</filter>
<linearGradient id="paint0_linear_162_81" x1="216.316" y1="115.172" x2="129.199" y2="233.543" gradientUnits="userSpaceOnUse">
<stop stop-color="#00EBFA"/>
<stop offset="1" stop-color="#AD00FF"/>
</linearGradient>
<linearGradient id="paint1_linear_162_81" x1="83.918" y1="50.2031" x2="227.145" y2="60.5391" gradientUnits="userSpaceOnUse">
<stop stop-color="#FF44BF"/>
<stop offset="1" stop-color="#FF2D2D"/>
</linearGradient>
<linearGradient id="paint2_linear_162_81" x1="28.5469" y1="57.5859" x2="80.9648" y2="228.375" gradientUnits="userSpaceOnUse">
<stop stop-color="#FFC700"/>
<stop offset="1" stop-color="#FF5449"/>
</linearGradient>
<clipPath id="clip0_162_81">
<rect width="252" height="252" fill="white"/>
</clipPath>
</defs>
</svg>
